<?xml version="1.0" standalone="no"?><!DOCTYPE svg PUBLIC "-//W3C//DTD SVG 1.1//EN" "http://www.w3.org/Graphics/SVG/1.1/DTD/svg11.dtd"><svg t="1773969564690" class="icon" viewBox="0 0 1268 1024" version="1.1" xmlns="http://www.w3.org/2000/svg" p-id="14760" xmlns:xlink="http://www.w3.org/1999/xlink" width="247.65625" height="200"><path d="M641.918749 1024a501.54421 501.54421 0 0 1-355.941777-148.383228 838.910276 838.910276 0 0 1-38.263741-42.935477l-21.801434-25.360852-36.595264 23.358679c-32.257224 18.575711-65.960461 38.263741-99.218771 58.952857a76.749946 76.749946 0 0 1-40.71084 13.459049 65.626765 65.626765 0 0 1-34.259396-10.45579 62.289811 62.289811 0 0 1-14.793831-24.470997 66.51662 66.51662 0 0 1 37.707582-69.853574c33.25831-18.46448 65.960461-38.041277 99.441234-58.063002l40.04345-24.137302-8.119921-16.351076c0.333695-1.557245-8.231154-23.803606-14.460135-43.380404A514.4471 514.4471 0 0 1 378.188138 60.843798 455.160547 455.160547 0 0 1 580.630024 4.004345 1401.520747 1401.520747 0 0 1 686.633934 0a1417.315664 1417.315664 0 0 1 483.079731 84.536172c96.994134 34.48186 109.67456 56.728221 90.876385 157.615468a1530.772105 1530.772105 0 0 1-232.474473 574.178579A455.716706 455.716706 0 0 1 641.807517 1024zM441.812731 680.738649c-32.813383 20.466652-62.84597 38.263741-93.545948 56.505757l-31.256138 18.46448 8.564849 10.789485a406.552249 406.552249 0 0 0 314.452314 152.610037 359.946122 359.946122 0 0 0 305.553769-164.178145 1447.459483 1447.459483 0 0 0 165.846622-344.818597c16.462307-50.388008 30.032587-101.554638 43.15794-151.942646l17.797089-62.623506-23.803606-9.343472A1349.241799 1349.241799 0 0 0 699.425592 104.11297a1086.067347 1086.067347 0 0 0-150.94156 10.233326 351.714968 351.714968 0 0 0-136.81512 50.165544 405.662394 405.662394 0 0 0-163.288291 447.93048c3.67065 13.125353 8.231154 25.917011 13.125353 39.598523l6.228981 17.685857 13.459049-13.125353c6.78514-5.116663 106.782533-64.514447 172.854225-103.668043l63.402129-37.59635 24.137302-88.540517c10.789485-48.163372 21.690202-96.437975 33.592005-144.378883a46.939822 46.939822 0 0 1 27.69672-31.033674 47.718444 47.718444 0 0 1 16.684771-3.003259 45.60504 45.60504 0 0 1 24.248533 7.007604 51.945253 51.945253 0 0 1 22.023898 64.180752l-33.369542 132.810775 68.073865-44.492722c32.257224-19.465566 65.181838-38.931132 98.328916-57.506843a61.177493 61.177493 0 0 1 29.921356-8.119922 48.274604 48.274604 0 0 1 34.815555 14.237671 53.724962 53.724962 0 0 1 14.79383 38.486205 57.618075 57.618075 0 0 1-24.248534 46.049967L568.394525 611.552466l29.142733 6.673908c31.367369 7.118836 61.066261 14.126439 90.54269 22.246361a66.739083 66.739083 0 0 1 43.15794 29.142733 47.051054 47.051054 0 0 1 3.893114 37.262655 43.825331 43.825331 0 0 1-44.93765 34.48186 97.439061 97.439061 0 0 1-26.695633-4.226809l-193.543341-54.503585a76.193787 76.193787 0 0 0-18.019553-3.670649h-3.336954z" p-id="14761"></path></svg>