<?xml version="1.0" standalone="no"?><!DOCTYPE svg PUBLIC "-//W3C//DTD SVG 1.1//EN" "http://www.w3.org/Graphics/SVG/1.1/DTD/svg11.dtd"><svg t="1765795557592" class="icon" viewBox="0 0 1024 1024" version="1.1" xmlns="http://www.w3.org/2000/svg" p-id="41554" xmlns:xlink="http://www.w3.org/1999/xlink" width="200" height="200"><path d="M383.914667 83.328a85.333333 85.333333 0 0 0-85.333334 85.333333v5.674667c-73.130667 19.242667-128 85.76-128 164.992v341.333333c0 79.232 55.466667 146.090667 128.64 165.290667l-0.64 5.376a85.333333 85.333333 0 0 0 85.333334 85.333333h256a85.333333 85.333333 0 0 0 85.333333-85.333333c0-0.981333 0.426667-2.730667 0.426667-5.248a171.52 171.52 0 0 0 127.573333-165.418667v-42.666666a42.666667 42.666667 0 0 0 42.666667-42.666667v-170.666667a42.666667 42.666667 0 0 0-42.666667-42.666666v-42.666667a170.624 170.624 0 0 0-127.445333-164.693333c0-2.56-0.554667-4.949333-0.554667-5.973334a85.333333 85.333333 0 0 0-85.333333-85.333333h-256z m-42.666667 170.666667h341.333333a85.333333 85.333333 0 0 1 85.333334 85.333333v341.333333a85.333333 85.333333 0 0 1-85.333334 85.333334h-341.333333a85.333333 85.333333 0 0 1-85.333333-85.333334v-341.333333a85.333333 85.333333 0 0 1 85.333333-85.333333z m170.666667 85.333333a42.666667 42.666667 0 0 0-42.666667 42.666667v85.333333h-85.333333a42.666667 42.666667 0 0 0 0 85.333333h128a42.666667 42.666667 0 0 0 42.666666-42.666666v-128a42.666667 42.666667 0 0 0-42.666666-42.666667z" fill="#2A343D" p-id="41555"></path></svg>