<?xml version="1.0" standalone="no"?><!DOCTYPE svg PUBLIC "-//W3C//DTD SVG 1.1//EN" "http://www.w3.org/Graphics/SVG/1.1/DTD/svg11.dtd"><svg t="1765796294785" class="icon" viewBox="0 0 1024 1024" version="1.1" xmlns="http://www.w3.org/2000/svg" p-id="45122" xmlns:xlink="http://www.w3.org/1999/xlink" width="200" height="200"><path d="M895.888014 0.127984H127.984002a128.303962 128.303962 0 0 0-127.984002 127.984002v575.928009a127.984002 127.984002 0 0 0 127.984002 127.984002h319.960005v63.992001H255.968004a63.992001 63.992001 0 1 0 0 127.984002h511.936008a63.992001 63.992001 0 0 0 0-127.984002H575.928009v-63.992001h319.960005a128.303962 128.303962 0 0 0 127.984002-127.984002v-575.928009a128.303962 128.303962 0 0 0-127.984002-127.984002z m0 703.912011H127.984002v-575.928009h767.904012z" fill="#8F9BB3" p-id="45123"></path></svg>