<?xml version="1.0" standalone="no"?><!DOCTYPE svg PUBLIC "-//W3C//DTD SVG 1.1//EN" "http://www.w3.org/Graphics/SVG/1.1/DTD/svg11.dtd"><svg t="1773969397822" class="icon" viewBox="0 0 1024 1024" version="1.1" xmlns="http://www.w3.org/2000/svg" p-id="12897" xmlns:xlink="http://www.w3.org/1999/xlink" width="200" height="200"><path d="M535.104 728c-119.104 0-216-96.896-216-216S416 296 535.104 296 751.104 392.896 751.104 512s-96.896 216-216 216z m0-346.666667c-72.042667 0-130.666667 58.624-130.666667 130.666667s58.624 130.666667 130.666667 130.666667 130.666667-58.624 130.666667-130.666667-58.602667-130.666667-130.666667-130.666667z" fill="#666666" p-id="12898"></path><path d="M535.104 867.541333a42.666667 42.666667 0 0 1 0-85.333333c148.992 0 270.229333-121.216 270.229333-270.208a42.666667 42.666667 0 0 1 85.333334 0c0 196.053333-159.509333 355.541333-355.562667 355.541333zM535.104 238.229333a42.666667 42.666667 0 0 1-42.666667-42.666666v-42.666667a42.666667 42.666667 0 1 1 85.333334 0v42.666667a42.666667 42.666667 0 0 1-42.666667 42.666666zM341.525333 318.421333a42.773333 42.773333 0 0 1-60.330666 0l-30.165334-30.165333a42.773333 42.773333 0 0 1 0-60.330667 42.773333 42.773333 0 0 1 60.330667 0l30.165333 30.165334c16.597333 16.576 16.597333 43.733333 0 60.330666zM261.333333 512c0 23.466667-19.2 42.666667-42.666666 42.666667h-42.666667c-23.466667 0-42.666667-19.2-42.666667-42.666667s19.2-42.666667 42.666667-42.666667h42.666667c23.466667 0 42.666667 19.2 42.666666 42.666667zM341.525333 705.578667a42.773333 42.773333 0 0 1 0 60.330666l-30.165333 30.165334a42.773333 42.773333 0 0 1-60.330667 0 42.773333 42.773333 0 0 1 0-60.330667l30.165334-30.165333a42.816 42.816 0 0 1 60.330666 0zM728.704 318.421333a42.773333 42.773333 0 0 1 0-60.330666l30.165333-30.165334a42.773333 42.773333 0 0 1 60.330667 0 42.773333 42.773333 0 0 1 0 60.330667l-30.165333 30.165333a42.816 42.816 0 0 1-60.330667 0z" fill="#666666" p-id="12899"></path></svg>